<?xml version="1.0" encoding="UTF-8"?><svg id="Layer_1" xmlns="http://www.w3.org/2000/svg" xmlns:xlink="http://www.w3.org/1999/xlink" viewBox="0 0 600 213"><defs><style>.cls-1{fill:#34a853;}.cls-1,.cls-2,.cls-3,.cls-4,.cls-5,.cls-6{stroke-miterlimit:10;stroke-width:3px;}.cls-1,.cls-3,.cls-4,.cls-5{stroke:#20344b;}.cls-7{fill:url(#linear-gradient-2);}.cls-2{stroke:#fff;}.cls-2,.cls-8{fill:#fff;}.cls-9{fill:url(#linear-gradient);}.cls-3{fill:#f9ab00;}.cls-10{isolation:isolate;}.cls-11{fill:#ff7daf;}.cls-4{fill:#4285f4;}.cls-12{fill:#20344b;}.cls-5{fill:#ea4335;}.cls-6{fill:none;stroke:#ea4335;}</style><linearGradient id="linear-gradient" x1="-733.88" y1="-1042.74" x2="-730.95" y2="-1044.12" gradientTransform="translate(18000.19 25047.2) scale(23.9)" gradientUnits="userSpaceOnUse"><stop offset="0" stop-color="#e40035"/><stop offset=".24" stop-color="#f60a48"/><stop offset=".35" stop-color="#f20755"/><stop offset=".49" stop-color="#dc087d"/><stop offset=".74" stop-color="#9717e7"/><stop offset="1" stop-color="#6c00f5"/></linearGradient><linearGradient id="linear-gradient-2" x1="-733.49" y1="-1044.85" x2="-731.6" y2="-1042.68" gradientTransform="translate(18000.19 25047.2) scale(23.9)" gradientUnits="userSpaceOnUse"><stop offset="0" stop-color="#ff31d9"/><stop offset="1" stop-color="#ff5be1" stop-opacity="0"/></linearGradient></defs><rect class="cls-12" x=".2" y=".2" width="599.6" height="212.6" rx="14.73" ry="14.73" transform="translate(600 213) rotate(180)"/><rect class="cls-2" x="416.99" y="29.05" width="155.56" height="155.1" rx="15" ry="15"/><path class="cls-9" d="M539.02,76.56l-3.19,47.41-30.56-62.18,33.75,14.76h0ZM517.85,137.88l-23.09,12.45-23.09-12.45,4.7-10.75h36.78l4.7,10.75ZM494.77,85.4l12.1,27.79h-24.21l12.1-27.79h0ZM453.68,123.97l-3.16-47.41,33.75-14.76-30.59,62.18h0Z"/><path class="cls-7" d="M539.02,76.56l-3.19,47.41-30.56-62.18,33.75,14.76h0ZM517.85,137.88l-23.09,12.45-23.09-12.45,4.7-10.75h36.78l4.7,10.75ZM494.77,85.4l12.1,27.79h-24.21l12.1-27.79h0ZM453.68,123.97l-3.16-47.41,33.75-14.76-30.59,62.18h0Z"/><path class="cls-8" d="M119.06,52.35c-1.43-.82-2.56-1.95-3.4-3.4-.84-1.44-1.26-3.04-1.26-4.78s.42-3.34,1.26-4.78c.84-1.44,1.97-2.58,3.4-3.4,1.43-.82,2.99-1.23,4.68-1.23,1.33,0,2.57.24,3.74.7,1.17.47,2.13,1.13,2.88,1.99l-1.51,1.54c-.59-.7-1.33-1.25-2.22-1.62-.89-.38-1.85-.57-2.87-.57-1.26,0-2.44.31-3.55.92-1.11.61-1.99,1.48-2.66,2.59-.66,1.12-.99,2.4-.99,3.86s.33,2.75.99,3.86c.66,1.12,1.55,1.98,2.66,2.59,1.11.61,2.29.92,3.55.92s2.22-.19,3.03-.57c.81-.38,1.51-.88,2.1-1.5.44-.47.79-1.04,1.06-1.7.27-.66.44-1.4.5-2.2h-6.67v-1.99h8.66c.08.47.13.91.13,1.31,0,1.11-.18,2.19-.53,3.23-.35,1.05-.91,1.97-1.69,2.76-1.66,1.8-3.87,2.69-6.62,2.69-1.7,0-3.26-.41-4.68-1.23Z"/><path class="cls-8" d="M137.19,52.68c-1.01-.6-1.79-1.43-2.35-2.47-.56-1.04-.84-2.19-.84-3.45s.28-2.41.84-3.45c.56-1.04,1.35-1.86,2.35-2.47,1.01-.6,2.14-.91,3.4-.91s2.39.3,3.4.91c1.01.6,1.79,1.43,2.35,2.47.56,1.04.84,2.19.84,3.45s-.28,2.41-.84,3.45c-.56,1.04-1.35,1.86-2.35,2.47-1.01.6-2.14.91-3.4.91s-2.39-.3-3.4-.91ZM142.79,51.05c.68-.39,1.22-.96,1.64-1.7.41-.74.62-1.6.62-2.59s-.21-1.85-.62-2.59c-.41-.74-.96-1.3-1.64-1.7-.68-.39-1.41-.59-2.2-.59s-1.53.2-2.21.59c-.69.39-1.24.96-1.65,1.7-.41.74-.62,1.6-.62,2.59s.21,1.85.62,2.59c.41.74.96,1.31,1.65,1.7.69.39,1.43.59,2.21.59s1.52-.2,2.2-.59Z"/><path class="cls-8" d="M151.5,52.68c-1.01-.6-1.79-1.43-2.35-2.47-.56-1.04-.84-2.19-.84-3.45s.28-2.41.84-3.45c.56-1.04,1.35-1.86,2.35-2.47,1.01-.6,2.14-.91,3.4-.91s2.39.3,3.4.91c1.01.6,1.79,1.43,2.35,2.47.56,1.04.84,2.19.84,3.45s-.28,2.41-.84,3.45c-.56,1.04-1.35,1.86-2.35,2.47-1.01.6-2.14.91-3.4.91s-2.39-.3-3.4-.91ZM157.1,51.05c.68-.39,1.22-.96,1.64-1.7.41-.74.62-1.6.62-2.59s-.21-1.85-.62-2.59c-.41-.74-.96-1.3-1.64-1.7-.68-.39-1.41-.59-2.2-.59s-1.53.2-2.22.59c-.69.39-1.24.96-1.65,1.7-.41.74-.62,1.6-.62,2.59s.21,1.85.62,2.59c.41.74.96,1.31,1.65,1.7.69.39,1.43.59,2.22.59s1.52-.2,2.2-.59Z"/><path class="cls-8" d="M165.2,57.96c-.98-.7-1.64-1.55-1.98-2.54l1.96-.83c.27.74.73,1.34,1.4,1.8.66.46,1.45.69,2.35.69,1.33,0,2.35-.37,3.08-1.11.73-.74,1.09-1.8,1.09-3.17v-1.43h-.1c-.42.65-1.01,1.19-1.77,1.6-.76.41-1.63.62-2.61.62-1.11,0-2.12-.29-3.03-.87-.92-.58-1.64-1.38-2.18-2.42-.54-1.04-.81-2.21-.81-3.54s.27-2.48.81-3.52c.54-1.04,1.26-1.85,2.18-2.43.91-.58,1.93-.87,3.03-.87.97,0,1.84.21,2.61.62.76.41,1.35.95,1.77,1.62h.1v-1.84h2.04v12.33c0,2.06-.57,3.64-1.71,4.72-1.14,1.08-2.64,1.62-4.51,1.62-1.51,0-2.76-.35-3.74-1.06ZM171.04,51.06c.63-.39,1.13-.95,1.51-1.69.38-.73.57-1.6.57-2.61s-.19-1.9-.57-2.63c-.38-.73-.88-1.29-1.51-1.67-.63-.38-1.33-.58-2.1-.58s-1.48.2-2.11.59c-.64.39-1.15.95-1.52,1.69-.38.73-.57,1.6-.57,2.61s.19,1.88.57,2.62c.38.74.89,1.3,1.52,1.69s1.34.57,2.11.57,1.47-.2,2.1-.59Z"/><path class="cls-8" d="M177.63,35.16h2.14v18.02h-2.14v-18.02Z"/><path class="cls-8" d="M184.7,52.7c-.97-.59-1.73-1.4-2.28-2.43-.55-1.03-.82-2.19-.82-3.49,0-1.22.26-2.36.77-3.41.51-1.05,1.24-1.88,2.19-2.5.95-.62,2.03-.93,3.26-.93s2.35.28,3.27.84c.92.56,1.63,1.34,2.13,2.33.49.99.74,2.12.74,3.4,0,.2-.02.42-.05.65h-10.17c.05.97.29,1.8.7,2.47.42.67.95,1.17,1.6,1.51.65.34,1.32.5,2.03.5,1.68,0,2.94-.77,3.8-2.32l1.81.88c-.54,1.02-1.28,1.84-2.24,2.45-.96.61-2.11.92-3.45.92-1.22,0-2.32-.29-3.3-.88ZM191.7,45.4c-.03-.54-.18-1.07-.45-1.61-.27-.54-.69-.99-1.26-1.36-.57-.37-1.29-.55-2.16-.55-1.01,0-1.86.32-2.57.97-.7.65-1.17,1.5-1.38,2.55h7.83Z"/><path class="cls-8" d="M202.22,35.16h5.44c1.85,0,3.46.38,4.83,1.15,1.38.76,2.43,1.82,3.17,3.18.74,1.36,1.11,2.92,1.11,4.68s-.37,3.32-1.11,4.68c-.74,1.36-1.8,2.42-3.17,3.18-1.38.76-2.99,1.15-4.83,1.15h-5.44v-18.02ZM207.66,51.14c2.13,0,3.82-.61,5.07-1.84,1.25-1.22,1.88-2.94,1.88-5.13s-.63-3.91-1.88-5.13c-1.25-1.22-2.94-1.84-5.07-1.84h-3.3v13.94h3.3Z"/><path class="cls-8" d="M221.28,52.7c-.97-.59-1.73-1.4-2.28-2.43-.55-1.03-.82-2.19-.82-3.49,0-1.22.26-2.36.77-3.41.51-1.05,1.24-1.88,2.19-2.5.95-.62,2.03-.93,3.26-.93s2.35.28,3.27.84c.92.56,1.63,1.34,2.13,2.33.49.99.74,2.12.74,3.4,0,.2-.02.42-.05.65h-10.17c.05.97.29,1.8.7,2.47.42.67.95,1.17,1.6,1.51.65.34,1.32.5,2.03.5,1.68,0,2.94-.77,3.8-2.32l1.81.88c-.54,1.02-1.28,1.84-2.24,2.45-.96.61-2.11.92-3.45.92-1.22,0-2.32-.29-3.3-.88ZM228.28,45.4c-.03-.54-.18-1.07-.45-1.61-.27-.54-.69-.99-1.26-1.36-.57-.37-1.29-.55-2.16-.55-1.01,0-1.86.32-2.57.97-.7.65-1.17,1.5-1.38,2.55h7.83Z"/><path class="cls-8" d="M230.45,40.34h2.29l3.98,10.32h.05l4.03-10.32h2.24l-5.24,12.84h-2.16l-5.19-12.84Z"/><path class="cls-8" d="M245.97,52.7c-.97-.59-1.73-1.4-2.28-2.43-.55-1.03-.82-2.19-.82-3.49,0-1.22.26-2.36.77-3.41.51-1.05,1.24-1.88,2.19-2.5.95-.62,2.03-.93,3.26-.93s2.35.28,3.27.84c.92.56,1.63,1.34,2.13,2.33.49.99.74,2.12.74,3.4,0,.2-.02.42-.05.65h-10.17c.05.97.28,1.8.7,2.47.42.67.95,1.17,1.6,1.51.65.34,1.32.5,2.03.5,1.68,0,2.94-.77,3.8-2.32l1.81.88c-.54,1.02-1.28,1.84-2.24,2.45-.96.61-2.11.92-3.45.92-1.23,0-2.32-.29-3.3-.88ZM252.97,45.4c-.03-.54-.18-1.07-.45-1.61-.27-.54-.69-.99-1.26-1.36-.57-.37-1.29-.55-2.16-.55-1.01,0-1.86.32-2.57.97-.7.65-1.17,1.5-1.38,2.55h7.83Z"/><path class="cls-8" d="M257.07,35.16h2.14v18.02h-2.14v-18.02Z"/><path class="cls-8" d="M264.24,52.68c-1.01-.6-1.79-1.43-2.35-2.47-.56-1.04-.84-2.19-.84-3.45s.28-2.41.84-3.45c.56-1.04,1.35-1.86,2.35-2.47,1.01-.6,2.14-.91,3.4-.91s2.39.3,3.4.91c1.01.6,1.79,1.43,2.35,2.47.56,1.04.84,2.19.84,3.45s-.28,2.41-.84,3.45c-.56,1.04-1.35,1.86-2.35,2.47-1.01.6-2.14.91-3.4.91s-2.39-.3-3.4-.91ZM269.84,51.05c.68-.39,1.22-.96,1.64-1.7.41-.74.62-1.6.62-2.59s-.21-1.85-.62-2.59c-.41-.74-.96-1.3-1.64-1.7-.68-.39-1.41-.59-2.2-.59s-1.53.2-2.21.59c-.69.39-1.24.96-1.65,1.7-.41.74-.62,1.6-.62,2.59s.21,1.85.62,2.59c.41.74.96,1.31,1.65,1.7.69.39,1.43.59,2.21.59s1.52-.2,2.2-.59Z"/><path class="cls-8" d="M275.99,40.34h2.04v1.91h.1c.39-.65.97-1.2,1.75-1.65.78-.44,1.66-.67,2.63-.67,1.16,0,2.2.29,3.13.88.93.59,1.67,1.4,2.2,2.44.54,1.04.81,2.21.81,3.5s-.27,2.48-.81,3.51c-.54,1.03-1.27,1.84-2.2,2.43-.93.59-1.98.88-3.13.88-.97,0-1.85-.22-2.63-.67-.78-.44-1.36-.99-1.75-1.62h-.1l.1,1.76v5.56h-2.14v-18.27ZM284.38,51.04c.65-.4,1.17-.97,1.56-1.71.39-.74.58-1.59.58-2.57s-.19-1.83-.58-2.57c-.39-.74-.91-1.31-1.56-1.71-.65-.4-1.35-.6-2.09-.6s-1.46.2-2.1.6c-.65.4-1.17.97-1.56,1.71-.39.74-.59,1.59-.59,2.57s.2,1.83.59,2.57c.39.74.91,1.31,1.56,1.71.65.4,1.35.6,2.1.6s1.43-.2,2.09-.6Z"/><path class="cls-8" d="M292.89,52.7c-.97-.59-1.73-1.4-2.28-2.43-.55-1.03-.82-2.19-.82-3.49,0-1.22.26-2.36.77-3.41.51-1.05,1.24-1.88,2.19-2.5.95-.62,2.03-.93,3.26-.93s2.35.28,3.27.84c.92.56,1.63,1.34,2.13,2.33.49.99.74,2.12.74,3.4,0,.2-.02.42-.05.65h-10.17c.05.97.28,1.8.7,2.47.42.67.95,1.17,1.6,1.51.65.34,1.32.5,2.03.5,1.68,0,2.94-.77,3.8-2.32l1.81.88c-.54,1.02-1.28,1.84-2.24,2.45-.96.61-2.11.92-3.45.92-1.23,0-2.32-.29-3.3-.88ZM299.88,45.4c-.03-.54-.18-1.07-.45-1.61-.27-.54-.69-.99-1.26-1.36-.57-.37-1.29-.55-2.16-.55-1.01,0-1.86.32-2.57.97-.7.65-1.17,1.5-1.38,2.55h7.83Z"/><path class="cls-8" d="M303.96,40.34h2.04v2.06h.1c.25-.7.74-1.29,1.46-1.76.72-.47,1.48-.7,2.27-.7.59,0,1.09.09,1.51.28v2.29c-.54-.27-1.14-.4-1.81-.4-.62,0-1.19.18-1.71.53-.52.35-.94.83-1.25,1.43-.31.6-.47,1.24-.47,1.93v7.19h-2.14v-12.84Z"/><path class="cls-8" d="M319.16,35.16h10.42v2.04h-8.28v5.97h7.48v2.01h-7.48v5.97h8.28v2.04h-10.42v-18.02Z"/><path class="cls-8" d="M335.32,46.66l-4.43-6.32h2.42l3.3,4.76,3.2-4.76h2.52l-4.51,6.32,4.58,6.52h-2.49l-3.32-4.93-3.3,4.93h-2.49l4.53-6.52Z"/><path class="cls-8" d="M343.53,40.34h2.04v1.91h.1c.39-.65.97-1.2,1.75-1.65.78-.44,1.66-.67,2.63-.67,1.16,0,2.2.29,3.13.88.93.59,1.67,1.4,2.2,2.44.54,1.04.81,2.21.81,3.5s-.27,2.48-.81,3.51c-.54,1.03-1.27,1.84-2.2,2.43-.93.59-1.98.88-3.13.88-.97,0-1.85-.22-2.63-.67-.78-.44-1.36-.99-1.75-1.62h-.1l.1,1.76v5.56h-2.14v-18.27ZM351.91,51.04c.65-.4,1.17-.97,1.56-1.71.39-.74.58-1.59.58-2.57s-.19-1.83-.58-2.57c-.39-.74-.91-1.31-1.56-1.71-.65-.4-1.35-.6-2.09-.6s-1.46.2-2.1.6c-.65.4-1.17.97-1.56,1.71-.39.74-.59,1.59-.59,2.57s.2,1.83.59,2.57c.39.74.91,1.31,1.56,1.71.65.4,1.35.6,2.1.6s1.43-.2,2.09-.6Z"/><path class="cls-8" d="M360.43,52.7c-.97-.59-1.73-1.4-2.28-2.43-.55-1.03-.82-2.19-.82-3.49,0-1.22.26-2.36.77-3.41.51-1.05,1.24-1.88,2.19-2.5.95-.62,2.03-.93,3.26-.93s2.35.28,3.27.84c.92.56,1.63,1.34,2.13,2.33.49.99.74,2.12.74,3.4,0,.2-.02.42-.05.65h-10.17c.05.97.28,1.8.7,2.47.42.67.95,1.17,1.6,1.51.65.34,1.32.5,2.03.5,1.68,0,2.94-.77,3.8-2.32l1.81.88c-.54,1.02-1.28,1.84-2.24,2.45-.96.61-2.11.92-3.45.92-1.23,0-2.32-.29-3.3-.88ZM367.42,45.4c-.03-.54-.18-1.07-.45-1.61-.27-.54-.69-.99-1.26-1.36-.57-.37-1.29-.55-2.16-.55-1.01,0-1.86.32-2.57.97-.7.65-1.17,1.5-1.38,2.55h7.83Z"/><path class="cls-8" d="M371.59,40.34h2.04v2.04h.1c.3-.76.81-1.28,1.54-1.59.72-.3,1.52-.45,2.39-.45.35,0,.65.03.91.08v2.19c-.29-.07-.67-.1-1.16-.1-1.09,0-1.98.35-2.66,1.05-.68.7-1.02,1.61-1.02,2.73v6.9h-2.14v-12.84ZM384.62,53.13c-.44-.17-.82-.39-1.12-.68-.67-.64-1.01-1.52-1.01-2.64v-7.53h-2.24v-1.94h2.24v-3.62h2.14v3.62h3.15v1.94h-3.15v7c0,.7.13,1.22.4,1.56.32.37.78.55,1.38.55.52,0,.99-.14,1.41-.43v2.09c-.25.12-.51.2-.77.25-.26.05-.59.08-.99.08-.52,0-1-.08-1.45-.25Z"/><path class="cls-5" d="M33.61,30.51h20.6c4.32,0,7.83,3.51,7.83,7.83h0c0,4.32-3.51,7.83-7.83,7.83h-20.6c-4.32,0-7.83-3.51-7.83-7.83h0c0-4.32,3.51-7.83,7.83-7.83Z" transform="translate(-14.12 32.83) rotate(-35.7)"/><path class="cls-4" d="M43.91,32.24h0c4.32,0,7.83,3.51,7.83,7.83v20.6c0,4.32-3.51,7.83-7.83,7.83h0c-4.32,0-7.83-3.51-7.83-7.83v-20.6c0-4.32,3.51-7.83,7.83-7.83Z" transform="translate(-22.62 56.63) rotate(-54.3)"/><path class="cls-3" d="M74.03,42.54h20.6c4.32,0,7.83,3.51,7.83,7.83h0c0,4.32-3.51,7.83-7.83,7.83h-20.6c-4.32,0-7.83-3.51-7.83-7.83h0c0-4.32,3.51-7.83,7.83-7.83Z" transform="translate(-13.54 58.68) rotate(-35.7)"/><path class="cls-1" d="M84.33,20.21h0c4.32,0,7.83,3.51,7.83,7.83v20.6c0,4.32-3.51,7.83-7.83,7.83h0c-4.32,0-7.83-3.51-7.83-7.83v-20.6c0-4.32,3.51-7.83,7.83-7.83Z" transform="translate(3.98 84.44) rotate(-54.3)"/><path class="cls-6" d="M367.03,90.49c4.14.78,10.18,3.4,10.11,12.03-.11,13.14.3,22.93.3,22.93,0,0,.55,11.13,10.39,11.86"/><path class="cls-6" d="M367.01,184.15c4.14-.78,10.2-3.39,10.13-12.04-.11-13.14.3-22.93.3-22.93,0,0,.55-11.13,10.39-11.86"/><path class="cls-6" d="M48.51,184.15c-4.14-.78-10.18-3.4-10.11-12.03.11-13.14-.3-22.93-.3-22.93,0,0-.55-11.13-10.39-11.86"/><path class="cls-6" d="M48.53,90.49c-4.14.78-10.2,3.39-10.13,12.04.11,13.14-.3,22.93-.3,22.93,0,0-.55,11.13-10.39,11.86"/><g class="cls-10"><path class="cls-11" d="M69.83,152.82c8.39-8.43,13.76-13.93,16.11-16.5,2.18-2.31,3.66-4.14,4.43-5.49.77-1.35,1.16-2.96,1.16-4.85,0-1.28-.32-2.49-.96-3.63-.64-1.13-1.59-2.05-2.86-2.76-1.26-.71-2.77-1.06-4.52-1.06-2.31,0-4.17.67-5.58,2.02s-2.33,2.81-2.76,4.4l-4.94-1.99c.43-1.37,1.2-2.79,2.31-4.27,1.11-1.48,2.61-2.74,4.49-3.79,1.88-1.05,4.09-1.57,6.61-1.57,2.7,0,5.09.58,7.19,1.73,2.1,1.16,3.72,2.7,4.88,4.62,1.16,1.93,1.73,4,1.73,6.23,0,4.54-2.38,9.18-7.13,13.93l-13.09,13.22h20.73v5.2h-27.79v-5.46Z"/><path class="cls-11" d="M111.52,156.25c-2.67-2.03-4.73-4.79-6.16-8.28-1.43-3.49-2.15-7.37-2.15-11.65s.72-8.16,2.15-11.65c1.43-3.49,3.48-6.25,6.13-8.28,2.65-2.03,5.73-3.05,9.24-3.05s6.52,1.02,9.18,3.05c2.65,2.03,4.71,4.79,6.16,8.28,1.45,3.49,2.18,7.37,2.18,11.65s-.73,8.16-2.18,11.65c-1.46,3.49-3.51,6.25-6.16,8.28-2.65,2.03-5.71,3.05-9.18,3.05s-6.54-1.02-9.21-3.05ZM127.05,151.76c1.82-1.56,3.22-3.69,4.2-6.39.98-2.7,1.48-5.71,1.48-9.05s-.49-6.35-1.48-9.05c-.98-2.7-2.39-4.82-4.2-6.39-1.82-1.56-3.93-2.34-6.32-2.34s-4.56.78-6.35,2.34c-1.8,1.56-3.19,3.69-4.17,6.39-.98,2.7-1.48,5.71-1.48,9.05s.49,6.35,1.48,9.05c.98,2.7,2.38,4.83,4.17,6.39,1.8,1.56,3.92,2.34,6.35,2.34s4.5-.78,6.32-2.34Z"/><path class="cls-11" d="M142.94,152.82c8.39-8.43,13.76-13.93,16.11-16.5,2.18-2.31,3.66-4.14,4.43-5.49.77-1.35,1.16-2.96,1.16-4.85,0-1.28-.32-2.49-.96-3.63-.64-1.13-1.59-2.05-2.86-2.76-1.26-.71-2.77-1.06-4.52-1.06-2.31,0-4.17.67-5.58,2.02s-2.33,2.81-2.76,4.4l-4.94-1.99c.43-1.37,1.2-2.79,2.31-4.27,1.11-1.48,2.61-2.74,4.49-3.79,1.88-1.05,4.09-1.57,6.61-1.57,2.7,0,5.09.58,7.19,1.73,2.1,1.16,3.72,2.7,4.88,4.62,1.16,1.93,1.73,4,1.73,6.23,0,4.54-2.38,9.18-7.13,13.93l-13.09,13.22h20.73v5.2h-27.79v-5.46Z"/><path class="cls-11" d="M184.66,157.99c-2.01-.88-3.8-2.2-5.36-3.98-1.56-1.78-2.66-3.97-3.31-6.58l4.88-1.93c.64,2.61,1.83,4.7,3.56,6.26,1.73,1.56,3.8,2.34,6.19,2.34,2.82,0,5.14-.88,6.96-2.63,1.82-1.75,2.73-4.04,2.73-6.87s-.89-5.08-2.66-6.9c-1.78-1.82-4.1-2.73-6.96-2.73-1.54,0-2.99.35-4.33,1.06-1.35.71-2.45,1.68-3.31,2.92l-5.58-2.44,2.82-22.14h22.79v5.2h-18.23l-1.73,13.29.26.06c2.22-1.93,4.99-2.89,8.28-2.89,2.52,0,4.87.62,7.03,1.86,2.16,1.24,3.88,2.97,5.17,5.2,1.28,2.23,1.93,4.71,1.93,7.45s-.65,5.23-1.96,7.48c-1.31,2.25-3.1,4.02-5.39,5.33-2.29,1.3-4.85,1.96-7.67,1.96-2.05,0-4.09-.44-6.1-1.32Z"/></g><path class="cls-11" d="M253.44,126.81h2.4l6.8,17.9h-2.33l-1.8-4.92h-7.75l-1.8,4.92h-2.33l6.8-17.9ZM257.79,137.79l-2.4-6.45-.7-1.92h-.1l-.7,1.92-2.4,6.45h6.3Z"/><path class="cls-11" d="M264.84,131.96h2.02v1.88h.1c.35-.63.91-1.17,1.67-1.61s1.58-.66,2.45-.66c1.53,0,2.7.45,3.51,1.34.81.89,1.21,2.1,1.21,3.64v8.17h-2.12v-7.85c0-1.18-.28-2.04-.85-2.58-.57-.53-1.34-.8-2.33-.8-.68,0-1.3.19-1.84.57-.54.38-.96.89-1.26,1.51-.3.62-.45,1.28-.45,1.96v7.17h-2.12v-12.75Z"/><path class="cls-11" d="M280.88,149.46c-.98-.7-1.63-1.54-1.96-2.53l1.95-.82c.27.73.73,1.33,1.39,1.79.66.46,1.44.69,2.34.69,1.32,0,2.34-.37,3.06-1.1.73-.74,1.09-1.78,1.09-3.15v-1.42h-.1c-.42.65-1,1.18-1.76,1.59-.76.41-1.62.61-2.59.61-1.1,0-2.1-.29-3.01-.86-.91-.57-1.63-1.37-2.16-2.4-.53-1.03-.8-2.2-.8-3.51s.27-2.46.8-3.5c.53-1.04,1.25-1.84,2.16-2.41s1.91-.86,3.01-.86c.97,0,1.83.21,2.59.61.76.41,1.35.95,1.76,1.61h.1v-1.83h2.02v12.25c0,2.05-.57,3.61-1.7,4.69-1.13,1.08-2.62,1.61-4.48,1.61-1.5,0-2.74-.35-3.71-1.05ZM286.68,142.6c.62-.39,1.12-.95,1.5-1.68.38-.73.56-1.59.56-2.59s-.19-1.89-.56-2.62-.88-1.28-1.5-1.66-1.32-.57-2.09-.57-1.47.19-2.1.58c-.63.39-1.14.95-1.51,1.68s-.56,1.59-.56,2.59.19,1.87.56,2.6c.38.74.88,1.3,1.51,1.68.63.38,1.33.57,2.1.57s1.46-.19,2.09-.58Z"/><path class="cls-11" d="M295.16,143.76c-.81-.9-1.21-2.16-1.21-3.77v-8.03h2.12v7.7c0,1.22.28,2.11.83,2.67s1.29.85,2.23.85c.72,0,1.35-.19,1.91-.57.56-.38.99-.88,1.3-1.5.31-.62.46-1.27.46-1.95v-7.2h2.12v12.75h-2.03v-1.85h-.1c-.35.63-.91,1.17-1.67,1.6-.77.43-1.58.65-2.45.65-1.53,0-2.7-.45-3.51-1.35Z"/><path class="cls-11" d="M308.32,126.81h2.12v17.9h-2.12v-17.9Z"/><path class="cls-11" d="M315.29,144.56c-.73-.37-1.3-.87-1.7-1.51-.4-.64-.6-1.37-.6-2.19,0-1.35.51-2.4,1.53-3.16,1.02-.76,2.3-1.14,3.85-1.14.77,0,1.48.08,2.14.25.66.17,1.16.36,1.51.58v-.77c0-.95-.33-1.71-1-2.29-.67-.58-1.51-.86-2.53-.86-.7,0-1.35.15-1.96.46s-1.09.74-1.44,1.29l-1.6-1.2c.5-.77,1.19-1.37,2.08-1.8s1.86-.65,2.92-.65c1.73,0,3.09.46,4.08,1.36s1.48,2.15,1.48,3.71v8.08h-2.03v-1.83h-.1c-.37.62-.92,1.14-1.65,1.58s-1.56.65-2.47.65-1.77-.18-2.5-.55ZM319.99,142.69c.62-.37,1.11-.86,1.48-1.47.37-.62.55-1.29.55-2.03-.4-.27-.89-.48-1.47-.65-.58-.17-1.2-.25-1.85-.25-1.17,0-2.05.24-2.64.72s-.89,1.11-.89,1.88c0,.7.27,1.27.8,1.7.53.43,1.21.65,2.02.65.72,0,1.38-.18,2-.55Z"/><path class="cls-11" d="M327.24,131.96h2.02v2.05h.1c.25-.7.73-1.28,1.45-1.75.72-.47,1.47-.7,2.25-.7.58,0,1.08.09,1.5.28v2.28c-.53-.27-1.13-.4-1.8-.4-.62,0-1.18.18-1.7.53-.52.35-.93.82-1.24,1.42-.31.59-.46,1.23-.46,1.92v7.14h-2.12v-12.75Z"/></svg>